<?xml version="1.0" standalone="no"?>
<!DOCTYPE svg PUBLIC "-//W3C//DTD SVG 20010904//EN"
 "http://www.w3.org/TR/2001/REC-SVG-20010904/DTD/svg10.dtd">
<svg version="1.0" xmlns="http://www.w3.org/2000/svg"
 width="109.000000pt" height="109.000000pt" viewBox="0 0 109.000000 109.000000"
 preserveAspectRatio="xMidYMid meet">
<metadata>
Created by potrace 1.14, written by Peter Selinger 2001-2017
</metadata>
<g transform="translate(0.000000,109.000000) scale(0.100000,-0.100000)"
fill="#000000" stroke="none">
<path d="M377 1013 c-2 -1 -18 -5 -37 -8 -46 -9 -64 -13 -67 -15 -2 -2 -7 -4
-13 -5 -5 -1 -13 -4 -17 -5 -5 -1 -11 -2 -15 -1 -5 0 -8 -4 -8 -10 0 -5 -4 -7
-10 -4 -5 3 -11 1 -11 -4 -1 -6 -3 -15 -4 -21 -1 -5 -3 -17 -4 -26 0 -8 -5
-13 -10 -10 -5 3 -12 -1 -15 -10 -3 -8 -11 -12 -17 -8 -7 4 -9 3 -5 -4 3 -6 2
-13 -3 -16 -14 -9 -3 -154 14 -179 8 -12 18 -21 20 -19 12 6 26 1 20 -8 -3 -5
-1 -10 6 -10 7 0 9 -3 6 -6 -3 -4 0 -16 8 -28 17 -23 20 -56 5 -56 -5 0 -10
-8 -10 -17 0 -9 -7 -25 -17 -35 -19 -21 -25 -103 -10 -133 5 -11 26 -36 46
-56 20 -19 37 -40 38 -46 11 -53 16 -81 17 -98 1 -11 5 -26 9 -32 5 -7 6 -17
2 -22 -3 -5 -1 -12 5 -16 6 -4 8 -10 5 -15 -7 -11 22 -40 43 -41 16 -1 40 1
71 5 15 3 19 16 26 74 4 35 11 49 20 40 5 -5 16 -64 18 -95 0 -7 4 -14 9 -14
13 -2 28 -6 31 -9 8 -7 57 -5 57 2 0 5 5 6 10 3 6 -3 12 0 15 7 2 7 10 27 16
43 7 17 13 39 15 50 1 11 5 31 8 43 4 21 18 165 20 214 0 14 7 16 39 12 27 -3
48 1 65 12 17 11 22 12 17 3 -4 -8 12 6 36 31 24 24 44 47 43 50 -1 3 7 13 17
22 11 10 19 16 19 13 0 -3 9 2 19 12 24 23 54 93 39 93 -5 0 -8 7 -4 15 3 8 1
15 -5 15 -6 0 -7 5 -4 11 4 6 -2 13 -13 15 -19 6 -19 6 0 97 11 54 16 106 13
127 l-7 35 -32 -35 c-24 -27 -36 -54 -50 -117 -11 -46 -23 -83 -28 -83 -21 0
-33 28 -35 78 -2 41 -7 58 -24 73 -12 10 -26 19 -31 19 -4 0 -7 3 -7 8 6 35
-37 70 -96 78 -11 2 -31 6 -45 10 -23 6 -208 13 -213 7z"/>
<path d="M72 380 c0 -14 2 -19 5 -12 2 6 2 18 0 25 -3 6 -5 1 -5 -13z"/>
<path d="M71 294 c0 -11 3 -14 6 -6 3 7 2 16 -1 19 -3 4 -6 -2 -5 -13z"/>
</g>
</svg>
