<svg id="Layer_1" data-name="Layer 1" xmlns="http://www.w3.org/2000/svg" viewBox="0 0 175.06 31.53"><defs><style>.cls-1{fill:#009870;}.cls-2{fill:#fefefe;}.cls-3{fill:#fff;}.cls-4{fill:#f6f6f6;}.cls-5{fill:#27492d;}.cls-6{fill:#db3524;}.cls-7{fill:#e5cdbd;}.cls-8{fill:#b61f1b;}.cls-9{fill:#e64750;}.cls-10{fill:#f8d89c;}.cls-11{fill:#76c3ab;}.cls-12{fill:#48b491;}.cls-13{fill:#44af8c;}.cls-14{fill:#c1c6d2;}.cls-15{fill:#8f9abe;}.cls-16{fill:#e9c919;}.cls-17{fill:#039870;}.cls-18{fill:#c4c8d4;}.cls-19{fill:#dfe8e4;}.cls-20{fill:#bfc4cf;}</style></defs><rect class="cls-1" width="175.06" height="31.53"/><path class="cls-2" d="M563.67,51.27c1.31,0,2.56-.05,3.8,0a1.34,1.34,0,0,1,.83.7c1.06,2,2.07,4,3.21,6.2,1-1.93,1.93-3.63,2.69-5.42a2.12,2.12,0,0,1,2.51-1.54,19.67,19.67,0,0,0,2.67,0V65.65h-4.32V58.56l-.23-.09-.68,1.23c-.43.8-.91,1.59-1.28,2.42a1.4,1.4,0,0,1-1.45,1c-.78,0-1-.39-1.35-1a35.16,35.16,0,0,0-2.13-3.69v7.19h-4.27Z" transform="translate(-427.81 -42.08)"/><path class="cls-3" d="M432.21,65.62V51.26c1.37,0,2.71,0,4,0,.23,0,.51.38.65.64,1.06,2,2.1,4,3.25,6.27.9-1.8,1.85-3.38,2.52-5.08.59-1.51,1.46-2.16,3.08-1.89a14.44,14.44,0,0,0,2.19,0V65.63h-4.25V58.52l-.23-.06c-.69,1.29-1.42,2.55-2,3.86a1.16,1.16,0,0,1-1.25.73,1.26,1.26,0,0,1-1.36-.75,26.88,26.88,0,0,0-2.28-3.89v7.21Z" transform="translate(-427.81 -42.08)"/><path class="cls-3" d="M493.61,51.32V65.63h-4.76V60.1h-4.44v5.53h-4.72V51.31h4.67V56.9h4.43V51.32Z" transform="translate(-427.81 -42.08)"/><path class="cls-2" d="M590.26,66a7.22,7.22,0,0,1-7.78-7.46,7.31,7.31,0,0,1,7.7-7.59c4.68,0,7.7,3,7.76,7.61A7.23,7.23,0,0,1,590.26,66Zm3-7.51.08,0a14.63,14.63,0,0,0-.44-1.85,2.81,2.81,0,0,0-2.49-1.94,2.31,2.31,0,0,0-2.4,1.2,7.21,7.21,0,0,0-.78,2.66,3.3,3.3,0,0,0,3,3.72c1.67,0,3-1.55,3-3.66Z" transform="translate(-427.81 -42.08)"/><path class="cls-4" d="M456,62.88a17.93,17.93,0,0,1-.49,2.16,1.14,1.14,0,0,1-.78.64c-1.31.06-2.62,0-4.1,0,.32-1.2.6-2.32.9-3.43.94-3.4,1.9-6.79,2.82-10.2.16-.6.41-.87,1.09-.85,1.62.06,3.24,0,4.86,0a.8.8,0,0,1,.94.66c1.26,4.42,2.55,8.84,3.83,13.26a2.55,2.55,0,0,1,.06.51h-4.87a17.25,17.25,0,0,0-.48-2.13,1.09,1.09,0,0,0-.76-.63C458,62.83,457,62.88,456,62.88Zm3.16-2.66-1.24-5.71-.17,0-1.29,5.74Z" transform="translate(-427.81 -42.08)"/><path class="cls-2" d="M527.9,54.24a7.75,7.75,0,0,1,5-3.24,10.37,10.37,0,0,1,6.1,1l-1.36,3.21-2.42-.49a2.76,2.76,0,0,0-2.84,1.16c-1.59,2.12-.77,5.48,1.51,6.24,1.34.45,1.62.25,1.62-1.12,0-2.08,0-2.08,2.1-2.42.46-.08.93-.11,1.57-.19v4.72c0,2.08,0,2.14-2,2.58-3,.64-5.87.63-8.16-1.86a7.2,7.2,0,0,1-2.07-4.92c0-.84,0-1.68,0-2.52v0l.2-.27Z" transform="translate(-427.81 -42.08)"/><path class="cls-3" d="M496.84,64.93l1.08-3.14c1.42.23,2.77.47,4.12.66a2.07,2.07,0,0,0,1-.16c.7-.29.8-.89.16-1.29a14.4,14.4,0,0,0-1.85-.77,17.88,17.88,0,0,1-3.23-1.57c-2.19-1.63-1.92-6.54,1.72-7.44a11.26,11.26,0,0,1,7.54.78l-1.11,3.13c-1-.22-2-.45-3-.63a4.45,4.45,0,0,0-1.41,0c-.26,0-.65.33-.69.55a1.06,1.06,0,0,0,.44.79,4.15,4.15,0,0,0,1,.39,24.73,24.73,0,0,1,2.72,1.06,4.55,4.55,0,0,1-1.2,8.54A11.57,11.57,0,0,1,496.84,64.93Z" transform="translate(-427.81 -42.08)"/><path class="cls-5" d="M524.87,58.2A2.72,2.72,0,0,1,522,59.61c-.29,0-.58-.12-.86-.18-.11,1.55-.2,3-.34,4.55a13.51,13.51,0,0,1-.35,1.88c-.6,2.41-1.09,2.68-3.63,2l-.35-2.67-.15,0c-.07.62-.16,1.24-.22,1.86s-.26,1.11-1,1a3,3,0,0,0-.5.06c-1.52.06-1.7,0-2.06-1.53-.28-1.14-.41-2.31-.66-3.46a1.34,1.34,0,0,0-.54-.83A3.72,3.72,0,0,1,509.84,58c.38-.78.85-1.53,1.21-2.18-.24-.47-.46-.88-.68-1.29-.1-.19-.2-.51-.35-.54-1.17-.22-1-1.21-1.13-2a14.08,14.08,0,0,1,0-2.43.89.89,0,0,1,.3-.68c.63-.33,1.12-.69,1.08-1.52,0-.14.35-.37.57-.45a15.72,15.72,0,0,1,11.26,0c.21.08.55.28.54.37-.15,1,.64,1.17,1.14,1.67.32.33.29,1.08.28,1.63,0,.75,0,1.4.82,1.74l.23.43.34.7-1.12.95c0-.22,0-.52.12-.66.48-.54.2-.87-.23-1.21C523,53.59,523,54.7,524,55.66v.73l-1.57.82L520.8,56c.08.82.12,1.62.26,2.4a.84.84,0,0,0,.58.55,9.16,9.16,0,0,0,1.65-.07l.91-.47Zm-9.11,6.09c.11-.42.31-.87-.4-1L512.45,63l.23,1.13c-.06.83.17,1.21,1.09.85a1.78,1.78,0,0,1,1.16,0C515.69,65.26,515.82,64.92,515.76,64.29ZM515,54.66l-1.24-.21C511.8,54,511.8,54,511.55,52c0-.1-.05-.19-.07-.29l-.79-.63c.08.94.14,1.61.18,2.27.11,1.67.1,1.67,1.85,2a13.61,13.61,0,0,0,7.3,0c.62-.3,1.61-.47,1.78-.94a13.06,13.06,0,0,0,.35-3.17c-1,.05-1,.65-.9,1.17a1.46,1.46,0,0,1-1.47,1.83C518.18,54.42,516.57,54.53,515,54.66Zm-1,2.73a7,7,0,0,0-.07,1.2c0,.27.22.74.37.75.56,0,1.58,0,1.62-.13.29-1.32,1.29-1.09,2.18-1.23.27,0,.5-.39.74-.61l-.07-.92h-4.63Zm6.24-.44-.34-.77a2.91,2.91,0,0,0-.45.8,7,7,0,0,0,0,1.21c0,3.63,1,3.54-3.67,3.66a2.51,2.51,0,0,1-.61,0c-1.82-.28-1.83-.28-1.82-2.13,0-.64.16-1.28.11-1.91s.48-1.2-.33-1.56a6,6,0,0,0-.58,1.52,34.4,34.4,0,0,0-.17,3.8,1.09,1.09,0,0,0,.62.79,12.18,12.18,0,0,0,7-.07c.15-.17.43-.34.42-.51C520.4,60.15,520.3,58.55,520.22,57Zm-3-10.27a13.66,13.66,0,0,0-5.39.51,2.39,2.39,0,0,0-.73,3.48l.94.4-.17-.3,1.48-1.71a2.08,2.08,0,0,1,2.78,1.49,2,2,0,0,1-1.71,2.31,5.55,5.55,0,0,1-1.27-.14l-1-1.16c-.06,1.94-.06,1.94,1.2,2.18a11.61,11.61,0,0,0,6.35,0c.68-.16,1-.41,1-1.17s0-1.73,1.11-1.91c.09,0,.25-.09.25-.13,0-.94,0-1.88,0-2.81,0-.14-.3-.35-.49-.38C520.1,47.11,518.65,46.9,517.2,46.68ZM519,61V58.4c-.62.06-1.19.1-1.74.2-.22,0-.57.22-.6.37-.18,1.17-1,1.06-1.79.92-.28,0-.58,0-1.27-.06.38.6.56,1.23.88,1.3A8.27,8.27,0,0,0,519,61Zm-3.26-10a1.61,1.61,0,0,0-1.5-1.61,1.52,1.52,0,0,0-1.57,1.51A1.49,1.49,0,0,0,514,52.43,1.56,1.56,0,0,0,515.69,51Zm1.12,12.52c.22.59.35,1.44.6,1.48a12.62,12.62,0,0,0,2.6-.07l.21-1.93ZM513,65.61c.12,1.72.3,1.91,1.56,1.91,1.63,0,.74-1.26,1.13-1.91Zm4.16,0,.28,1.77c.31,0,.51,0,.7.09,1.09.24,1.53-.36,1.63-1.31,0-.2-.23-.62-.38-.63C518.68,65.54,518,65.61,517.15,65.65Zm-4.91-7c-1,.24-1.7.33-1.75,1.26s0,1.66,1.15,1.78Zm10.43-5.21c1.17-1.42,1.19-4,.14-4.37,0,.7-.11,1.4-.13,2.09S522.67,52.59,522.67,53.46Zm-12.61-.9V49.05C509,49.6,509,51.84,510.06,52.56Zm11.66,3.36a1.18,1.18,0,0,0,.36.41.86.86,0,0,0,.7.11c.22-.14.48-.49.44-.7a11.24,11.24,0,0,0-.52-1.64Zm-10.31.63-1.27,2.12C512.16,57.89,512.16,57.89,511.41,56.55Z" transform="translate(-427.81 -42.08)"/><path class="cls-2" d="M555.4,54.32h-4.64v-3h9.35a6.5,6.5,0,0,1-.72,4.37c-1.41,2.17-2.61,4.47-4,6.88h4.91v3.06h-9.81a6.72,6.72,0,0,1,.84-4.54C552.76,59,554,56.72,555.4,54.32Z" transform="translate(-427.81 -42.08)"/><path class="cls-3" d="M468.72,54.31h-3v-3h10.78v3h-2.91V65.65h-4.92Z" transform="translate(-427.81 -42.08)"/><path class="cls-2" d="M547.3,65.65h-4.76V51.36h4.76Z" transform="translate(-427.81 -42.08)"/><path class="cls-6" d="M524.3,54.4l1.12-.95-.34-.7c.35-1.51.69-3,1-4.54l1.38.28c-.21,1.15-.43,2.29-.65,3.43-.05.27-.11.53-.16.79l-1,.79.53,1.26-.3,1.37-.22.43-1.36,0-.25-.21v-.73Z" transform="translate(-427.81 -42.08)"/><path class="cls-5" d="M525.64,56.56c.07-.15.14-.29.22-.43,1.4-.59,1.8-1.53.91-3l-.61,1.58-.53-1.26,1-.79c.47-.16.81-.07.94.47.08.36.19.71.28,1.06l-.81,1.86-.2.27v0l-1.4,1.25Z" transform="translate(-427.81 -42.08)"/><path class="cls-7" d="M525.64,56.56l-.15,1-.55.26-.68-1,0-.29Z" transform="translate(-427.81 -42.08)"/><path class="cls-8" d="M526.11,48.21c-.34,1.51-.68,3-1,4.54l-.23-.43c.35-1.38.71-2.76,1.07-4.14A.32.32,0,0,1,526.11,48.21Z" transform="translate(-427.81 -42.08)"/><path class="cls-9" d="M524.26,56.89l.68,1c0,.11,0,.23-.07.34l-.67.17-.89-.43Z" transform="translate(-427.81 -42.08)"/><path class="cls-10" d="M526.11,48.21a.32.32,0,0,0-.19,0L527.2,47c.14.72.21,1.13.29,1.53Z" transform="translate(-427.81 -42.08)"/><path class="cls-1" d="M593.24,58.44v.11c0,2.11-1.33,3.69-3,3.66a3.3,3.3,0,0,1-3-3.72,7.21,7.21,0,0,1,.78-2.66,2.31,2.31,0,0,1,2.4-1.2,2.81,2.81,0,0,1,2.49,1.94,14.63,14.63,0,0,1,.44,1.85Z" transform="translate(-427.81 -42.08)"/><path class="cls-1" d="M459.11,60.22h-2.7l1.29-5.74.17,0Z" transform="translate(-427.81 -42.08)"/><path class="cls-11" d="M526.89,56.37l.2-.27Z" transform="translate(-427.81 -42.08)"/><path class="cls-12" d="M511.08,50.67a2.39,2.39,0,0,1,.73-3.48,13.66,13.66,0,0,1,5.39-.51c.55.12,1.1.23,1.64.37,3.21.8,2.81.34,3,3.43a1.36,1.36,0,0,1,0,.2c-1.14.18-1.09,1.11-1.11,1.91s-.36,1-1,1.17a11.61,11.61,0,0,1-6.35,0c-.07-.34-.14-.68-.2-1a5.55,5.55,0,0,0,1.27.14,2,2,0,0,0,1.71-2.31,2.08,2.08,0,0,0-2.78-1.49c0-.56.07-1.11.11-1.67-1.54-.31-2.35.31-2.35,1.78C511.09,49.67,511.08,50.17,511.08,50.67Zm9.56.2a1.95,1.95,0,1,0-3.89.05,1.95,1.95,0,1,0,3.89-.05Z" transform="translate(-427.81 -42.08)"/><path class="cls-13" d="M520,62.25a12.18,12.18,0,0,1-7,.07,1.09,1.09,0,0,1-.62-.79,34.4,34.4,0,0,1,.17-3.8,6,6,0,0,1,.58-1.52c.81.36.29,1,.33,1.56s-.1,1.27-.11,1.91c0,1.85,0,1.85,1.82,2.13a2.51,2.51,0,0,0,.61,0c4.64-.12,3.68,0,3.67-3.66a7,7,0,0,1,0-1.21,2.91,2.91,0,0,1,.45-.8l.34.77C520.16,58.72,520.09,60.48,520,62.25Z" transform="translate(-427.81 -42.08)"/><path class="cls-14" d="M519,61a8.27,8.27,0,0,1-4.52.13c-.32-.07-.5-.7-.88-1.3.69,0,1,0,1.27.06.83.14,1.61.25,1.79-.92,0-.15.38-.33.6-.37.55-.1,1.12-.14,1.74-.2Z" transform="translate(-427.81 -42.08)"/><path class="cls-15" d="M511.48,51.71c0,.1,0,.19.07.29.25,2,.25,2,2.18,2.45l1.41.49h2.65l.4-.18,1.74-.13.09.74a13.61,13.61,0,0,1-7.3,0c-.08-.14-.14-.38-.24-.39-1.62-.31-1.18-1.67-1.36-2.69C511.09,52.12,511.35,51.9,511.48,51.71Z" transform="translate(-427.81 -42.08)"/><path class="cls-16" d="M515.69,51A1.56,1.56,0,0,1,514,52.43a1.49,1.49,0,0,1-1.42-1.53,1.52,1.52,0,0,1,1.57-1.51A1.61,1.61,0,0,1,515.69,51Z" transform="translate(-427.81 -42.08)"/><path class="cls-17" d="M511.08,50.67c0-.5,0-1,0-1.5,0-1.47.81-2.09,2.35-1.78,0,.56-.07,1.11-.11,1.67l-1.48,1.71.17.3Z" transform="translate(-427.81 -42.08)"/><path class="cls-18" d="M518.82,57.37c-.24.22-.47.57-.74.61-.89.14-1.89-.09-2.18,1.23,0,.16-1.06.17-1.62.13-.15,0-.34-.48-.37-.75a7,7,0,0,1,.07-1.2Z" transform="translate(-427.81 -42.08)"/><path class="cls-14" d="M520,55.37l-.09-.74-1.74.13-.4.18h-2.65l-.17-.28c1.6-.13,3.21-.24,4.81-.4a1.46,1.46,0,0,0,1.47-1.83c-.06-.52-.08-1.12.9-1.17a13.06,13.06,0,0,1-.35,3.17C521.63,54.9,520.64,55.07,520,55.37Z" transform="translate(-427.81 -42.08)"/><path class="cls-13" d="M516.81,63.52l3.41-.52L520,64.93a12.62,12.62,0,0,1-2.6.07C517.16,65,517,64.11,516.81,63.52Z" transform="translate(-427.81 -42.08)"/><path class="cls-13" d="M513,65.61h2.69c-.39.65.5,1.92-1.13,1.91C513.29,67.52,513.11,67.33,513,65.61Z" transform="translate(-427.81 -42.08)"/><path class="cls-15" d="M518.82,57.37l-4.84,0,.14-.94h4.63Z" transform="translate(-427.81 -42.08)"/><path class="cls-12" d="M517.15,65.65c.83,0,1.53-.11,2.23-.08.15,0,.4.43.38.63-.1,1-.54,1.55-1.63,1.31-.19,0-.39-.05-.7-.09Z" transform="translate(-427.81 -42.08)"/><path class="cls-15" d="M523.29,58.84a9.16,9.16,0,0,1-1.65.07.84.84,0,0,1-.58-.55c-.14-.78-.18-1.58-.26-2.4l1.66,1.25C522.42,57.92,522.33,58.65,523.29,58.84Z" transform="translate(-427.81 -42.08)"/><path class="cls-18" d="M512.24,58.67l-.6,3c-1.14-.12-1.19-1-1.15-1.78S511.27,58.91,512.24,58.67Z" transform="translate(-427.81 -42.08)"/><path class="cls-19" d="M522.67,53.46c0-.87,0-1.57,0-2.28s.08-1.39.13-2.09C523.86,49.5,523.84,52,522.67,53.46Z" transform="translate(-427.81 -42.08)"/><path class="cls-12" d="M515.76,64.29c.06.63-.07,1-.83.7a1.78,1.78,0,0,0-1.16,0c-.92.36-1.15,0-1.09-.85A3.58,3.58,0,0,1,515.76,64.29Z" transform="translate(-427.81 -42.08)"/><path class="cls-19" d="M521.83,50.68a1.36,1.36,0,0,0,0-.2c-.16-3.09.24-2.63-3-3.43-.54-.14-1.09-.25-1.64-.37,1.45.22,2.9.43,4.35.68.19,0,.49.24.49.38.06.93,0,1.87,0,2.81C522.08,50.59,521.92,50.64,521.83,50.68Z" transform="translate(-427.81 -42.08)"/><path class="cls-17" d="M515.76,64.29a3.58,3.58,0,0,0-3.08-.2L512.45,63l2.91.38C516.07,63.42,515.87,63.87,515.76,64.29Z" transform="translate(-427.81 -42.08)"/><path class="cls-18" d="M524.3,54.4,524,55.66c-1.07-1-1-2.07.16-3.13.43.34.71.67.23,1.21C524.3,53.88,524.34,54.18,524.3,54.4Z" transform="translate(-427.81 -42.08)"/><path class="cls-19" d="M510.06,52.56c-1.08-.72-1.05-3,0-3.51Z" transform="translate(-427.81 -42.08)"/><path class="cls-14" d="M523.29,58.84c-1-.19-.87-.92-.83-1.63l1.57-.82.25.21,0,.29-1,1,.89.43Z" transform="translate(-427.81 -42.08)"/><path class="cls-11" d="M521.72,55.92l1-1.82a11.24,11.24,0,0,1,.52,1.64c0,.21-.22.56-.44.7a.86.86,0,0,1-.7-.11A1.18,1.18,0,0,1,521.72,55.92Z" transform="translate(-427.81 -42.08)"/><path class="cls-20" d="M511.48,51.71c-.13.19-.39.41-.36.57.18,1-.26,2.38,1.36,2.69.1,0,.16.25.24.39-1.75-.34-1.74-.34-1.85-2,0-.66-.1-1.33-.18-2.27Z" transform="translate(-427.81 -42.08)"/><path class="cls-20" d="M511.41,56.55c.75,1.34.75,1.34-1.27,2.12Z" transform="translate(-427.81 -42.08)"/><path class="cls-19" d="M520,62.25c.07-1.77.14-3.53.2-5.3.08,1.6.18,3.2.22,4.79C520.45,61.91,520.17,62.08,520,62.25Z" transform="translate(-427.81 -42.08)"/><path class="cls-17" d="M513.13,52.72c.06.34.13.68.2,1-1.26-.24-1.26-.24-1.2-2.18Z" transform="translate(-427.81 -42.08)"/><path class="cls-20" d="M515,54.66l.17.28-1.41-.49Z" transform="translate(-427.81 -42.08)"/><path class="cls-20" d="M526.16,54.76l.61-1.58c.89,1.42.49,2.36-.91,3Z" transform="translate(-427.81 -42.08)"/><path class="cls-5" d="M520.64,50.87a1.95,1.95,0,1,1-2-2A1.92,1.92,0,0,1,520.64,50.87Zm-.42.08a1.53,1.53,0,1,0-3.05,0,1.53,1.53,0,0,0,3.05,0Z" transform="translate(-427.81 -42.08)"/><path class="cls-20" d="M517.79,54.94l.4-.18Z" transform="translate(-427.81 -42.08)"/><path class="cls-16" d="M520.22,51a1.53,1.53,0,0,1-3.05,0,1.53,1.53,0,1,1,3.05,0Z" transform="translate(-427.81 -42.08)"/></svg>