<svg id="Layer_1" data-name="Layer 1" xmlns="http://www.w3.org/2000/svg" viewBox="0 0 165.75 22.27"><defs><style>.cls-1{fill:#1d3f22;}.cls-2{fill:#4fb796;}.cls-3{fill:#4db695;}.cls-4{fill:#1c3e21;}.cls-5{fill:#1f3f23;}.cls-6{fill:#27492d;}.cls-7{fill:#db3524;}.cls-8{fill:#e64750;}.cls-9{fill:#b61f1b;}.cls-10{fill:#f8d89c;}.cls-11{fill:#48b491;}.cls-12{fill:#44af8c;}.cls-13{fill:#c4c8d4;}.cls-14{fill:#8f9abe;}.cls-15{fill:#e9c919;}.cls-16{fill:#c1c6d2;}.cls-17{fill:#039870;}.cls-18{fill:#dfe8e4;}.cls-19{fill:#bfc4cf;}.cls-20{fill:#f4f6f4;}.cls-21{fill:#e5cdbd;}.cls-22{fill:#fff;}</style></defs><path class="cls-1" d="M836.17,454.71c1.33,0,2.64,0,4,0,.25,0,.56.32.7.57.9,1.69,1.77,3.4,2.65,5.11.2.38.41.75.67,1.22,1.08-2.15,2.14-4.17,3.13-6.22a1.07,1.07,0,0,1,1.15-.72c1.18.05,2.35,0,3.59,0v14.45h-4.35v-7l-.25-.08L845,466.45a1.93,1.93,0,0,1-2.66-1.38,33.7,33.7,0,0,0-1.74-3.28v7.36h-4.47Z" transform="translate(-836.17 -449.36)"/><path class="cls-2" d="M975.48,461.63c1.09-2.16,2.09-4.1,3-6.07a1.35,1.35,0,0,1,1.46-.93c1.11.07,2.22,0,3.39,0v14.5H979v-7l-.22-.08c-.64,1.19-1.3,2.37-1.9,3.58a1.45,1.45,0,0,1-1.51,1,1.43,1.43,0,0,1-1.4-1,26.12,26.12,0,0,0-2.07-3.5v7.06h-4.42c0-.27-.06-.56-.06-.85,0-4.19,0-8.38,0-12.57,0-.85.28-1,1.08-1.11,2.59-.42,4.16.5,5,3A29.13,29.13,0,0,0,975.48,461.63Z" transform="translate(-836.17 -449.36)"/><path class="cls-3" d="M994.24,454.4c4.67,0,7.69,3,7.68,7.63s-3.16,7.54-7.82,7.53a7.31,7.31,0,0,1-7.64-7.72C986.47,457.39,989.59,454.4,994.24,454.4Zm.07,11.42a7.87,7.87,0,0,0,1.92-1.12,4.53,4.53,0,0,0,0-5.53,2.58,2.58,0,0,0-4.12,0,5.93,5.93,0,0,0-.93,2.71A3.48,3.48,0,0,0,994.31,465.82Z" transform="translate(-836.17 -449.36)"/><path class="cls-4" d="M897.58,454.76v14.39h-4.72v-5.58h-4.45v5.57h-4.73V454.77h4.69v5.63h4.46v-5.64Z" transform="translate(-836.17 -449.36)"/><path class="cls-5" d="M864.19,469.14l-.07-.18c-.22-.84-.18-2-.72-2.42s-1.76-.13-2.67-.14H860c-.1.48-.2.93-.31,1.38s-.22.91-.34,1.39h-4.77c1.33-4.82,2.65-9.59,4-14.46,2,0,4,0,6.05,0a.74.74,0,0,1,.52.47c1.36,4.62,2.69,9.24,4,13.94Zm-1.11-5.43c-.42-1.93-.83-3.8-1.23-5.67h-.18l-1.27,5.68Z" transform="translate(-836.17 -449.36)"/><path class="cls-2" d="M931.87,457.7a8.3,8.3,0,0,1,4.66-3.19,10.14,10.14,0,0,1,6.4,1c-.08.2-.16.42-.25.63-.34.77-.47,1.84-1.06,2.23s-1.53-.07-2.33-.13a3.21,3.21,0,0,0-3.73,3.08,3.71,3.71,0,0,0,2.74,4.34c.83.15,1.2-.08,1.13-1s0-1.6,0-2.47l3.79-.39v3.08c0,.88-.06,1.77,0,2.64s-.28,1.07-1,1.28a12.11,12.11,0,0,1-5.47.63,7.61,7.61,0,0,1-6-8.27l.15-1.51Z" transform="translate(-836.17 -449.36)"/><path class="cls-5" d="M911.37,455.5l-1.11,3.07c-1.37-.21-2.69-.46-4-.59-.36,0-.75.35-1.12.53.28.33.51.79.87.95,1.07.47,2.25.72,3.29,1.25a4.57,4.57,0,0,1-1,8.57,11.89,11.89,0,0,1-7.44-.82c.37-1.12.73-2.16,1.1-3.26,1.13.24,2.23.54,3.35.7.81.11,2,.35,2.2-.64s-1-1.08-1.66-1.36c-.87-.34-1.81-.55-2.65-1a4.22,4.22,0,0,1-2.41-4.49,4,4,0,0,1,3.53-3.85A11.22,11.22,0,0,1,911.37,455.5Z" transform="translate(-836.17 -449.36)"/><path class="cls-2" d="M964.07,454.74A6.9,6.9,0,0,1,963,459.9c-1.29,1.93-2.35,4-3.6,6.18h4.89v3.07h-9.83c0-1.44-.27-2.85.65-4.24,1.47-2.25,2.76-4.61,4.21-7.08h-4.63v-3.09Z" transform="translate(-836.17 -449.36)"/><path class="cls-6" d="M928.9,462a3.42,3.42,0,0,1-3.65.93c-.21,1.94-.42,3.86-.63,5.78a7.31,7.31,0,0,1-.18.78c-.57,2.26-.57,2.26-2.91,2a6.7,6.7,0,0,1-.71-.13l-.35-2.71h-.12c-.13.89-.26,1.78-.41,2.84-.86,0-1.72.05-2.57,0a1,1,0,0,1-.63-.62c-.33-1.38-.63-2.76-.87-4.15-.08-.5-.13-.87-.73-1s-.94-.78-1.22-1.45c-.88-2.05.19-3.55,1.12-4.9l-.7-1.36c-.09-.17-.15-.48-.27-.49-1.3-.21-1.09-1.29-1.22-2.12-.09-.63,0-1.28-.05-1.92a1.24,1.24,0,0,1,.84-1.42c.21-.08.49-.39.47-.56-.11-.89.5-1,1.13-1.25a15.9,15.9,0,0,1,10.61.09c.52.18.89.39.82,1,0,.17.08.49.19.52,1.54.51,1.14,1.76,1.16,2.86v.5l.8.6.24.41.34.71-1.12.94c0-.22,0-.51.12-.66.47-.54.21-.87-.23-1.2-1.19,1.07-1.24,2.27-.15,3.07,0,.26,0,.53,0,.79l-1.56.81-1.65-1.24c.08.8.12,1.6.24,2.39a.74.74,0,0,0,.49.51,12.65,12.65,0,0,0,1.74,0l.88-.47Zm-14.65.29c1.82-.85,1.82-.85,1.16-2.44l-1.15,2.46-.06,0Zm2.42,5.51c.13.25.26.72.4.73.86,0,1.72-.07,2.66-.12v-.83c.4-.58,0-.7-.46-.77-.89-.13-1.79-.23-2.83-.36Zm1.29-6.92c-.2,2.38-.31,1.94,1.71,2.06.06,0,.12,0,.27-.09,0-1.14.81-1.41,1.84-1.34a1.62,1.62,0,0,0,.79-.12c.13-.06.15-.34.23-.53l-.07-.92H918.1Zm-2.5-5.68-.78-.63c.07.9.13,1.53.16,2.17.1,1.75.1,1.75,1.86,2.11a13.57,13.57,0,0,0,7.29,0c.62-.3,1.61-.47,1.78-.93a12.51,12.51,0,0,0,.35-3.18c-1.13.1-.92.86-.9,1.4,0,.9-.32,1.3-1.19,1.54a13.62,13.62,0,0,1-6.5.21c-1.28-.18-2.14-.74-2-2.21A2.09,2.09,0,0,0,915.46,455.21Zm8.74,5.19-.38-.72c-.14.24-.41.48-.41.73,0,1.24,0,2.49,0,3.74,0,.59-.2.94-.76,1-1.33.06-2.67.07-4,.09-1.14,0-1.51-.59-1.4-1.67s.14-2.22.17-3.33c0-.16-.22-.33-.33-.5-.15.14-.4.24-.44.4a8.36,8.36,0,0,0-.21,1.49,32.91,32.91,0,0,0-.14,3.29,1.2,1.2,0,0,0,.6.92,11.81,11.81,0,0,0,7.06-.05c.16-.19.46-.39.46-.58C924.4,463.58,924.29,462,924.2,460.4Zm-6.9-3.17a12.07,12.07,0,0,0,6,.16c1-.17,1.58-.64,1.47-1.7a1.27,1.27,0,0,1,1.07-1.51c.08-.88.2-1.76.22-2.65a.88.88,0,0,0-.52-.67c-1.44-.27-2.89-.46-4.34-.68a13.78,13.78,0,0,0-5.38.51,2.38,2.38,0,0,0-.74,3.48l.94.39-.16-.29,1.47-1.72a4.6,4.6,0,0,1,1.27-.07,2,2,0,0,1,1.48,2.37c-.33,1.22-1.35,1.73-2.76,1.39l-1.15-1.1C916,456.82,916.08,457,917.3,457.23Zm5.62,7.47v-2.8c-.65.07-1.22.1-1.78.2-.21,0-.54.25-.56.42-.16,1-.81,1.06-1.61.91a9.45,9.45,0,0,0-1.07-.1c-.13.69-.21,1.33.62,1.36C920,464.75,921.43,464.7,922.92,464.7Zm-3.25-10.27a1.64,1.64,0,0,0-1.56-1.55,1.57,1.57,0,0,0-1.52,1.58,1.5,1.5,0,0,0,1.49,1.47A1.57,1.57,0,0,0,919.67,454.43Zm1.1,12.59c.24.6.37,1.44.62,1.48a11.83,11.83,0,0,0,2.53-.06,5.76,5.76,0,0,0,.23-1.27c0-.2-.32-.58-.46-.57C922.79,466.68,921.91,466.85,920.77,467Zm-1.07,2.09h-2.78c.29,1.82.41,1.92,1.66,1.91C920.15,471,919.24,469.74,919.7,469.11Zm1.71,1.87c.59,0,1.19.18,1.55-.05s.6-.84.81-1.32c.05-.12-.18-.52-.3-.52-.76,0-1.52,0-2.35,0Zm-5.19-8.78c-1,.17-1.69.31-1.75,1.21s0,1.66,1.14,1.8C915.8,464.26,916,463.32,916.22,462.2Zm10.54-5.39c1-1.15,1.09-3.65,0-4.28ZM914.1,452.6l-.33-.05c-.78.75-.56,1.75-.42,2.65.09.57-.18,1.46.75,1.69Zm12.6,5-.14,0a3.24,3.24,0,0,1-.2,1,3.42,3.42,0,0,1-.81.66c.1.14.15.3.25.35.32.15.72.44,1,.35.52-.2.54-.65.25-1.16A5.64,5.64,0,0,1,926.7,457.56Z" transform="translate(-836.17 -449.36)"/><path class="cls-5" d="M877.66,469.16h-4.95V457.84h-2.92v-3.06h10.78v3h-2.91Z" transform="translate(-836.17 -449.36)"/><path class="cls-2" d="M951.32,454.74v14.39h-4.79V454.74Z" transform="translate(-836.17 -449.36)"/><path class="cls-7" d="M928.28,457.89l1.12-.94c-.11-.24-.23-.47-.34-.71l1-4.53,1.39.28c-.16.91-.34,1.83-.48,2.75-.07.43-.07.87-.11,1.3h0l-.23.21-1.07.75c.19.44.36.86.54,1.27-.1.46-.2.91-.29,1.36l-.24.44-1.54,0-.07-.2c0-.26,0-.53,0-.79S928.19,458.29,928.28,457.89Z" transform="translate(-836.17 -449.36)"/><path class="cls-6" d="M929.61,460.06l.24-.44c1.38-.57,1.79-1.54,1.18-2.82-.48.2-.48.2-.89,1.46-.18-.41-.35-.83-.54-1.27l1.07-.75.23-.21h0c1.06.12.6,1.15,1,1.66l-.93,2-1.5,1.64-.2-.22Z" transform="translate(-836.17 -449.36)"/><path class="cls-8" d="M929.24,461.09l.2.22-.54.7-.76-.14c-1-.29-.62-.84-.27-1.39Z" transform="translate(-836.17 -449.36)"/><path class="cls-9" d="M930.08,451.71l-1,4.53-.24-.41,1-4.1Z" transform="translate(-836.17 -449.36)"/><path class="cls-10" d="M930.08,451.71l-.21,0c0-.09.08-.2.15-.25.32-.25.66-.48,1-.71.15.4.31.81.46,1.22Z" transform="translate(-836.17 -449.36)"/><path class="cls-11" d="M917.29,456.24c1.41.34,2.43-.17,2.76-1.39a2,2,0,0,0-1.48-2.37,4.6,4.6,0,0,0-1.27.07c0-.55.07-1.11.11-1.66-1.55-.31-2.35.31-2.35,1.78,0,.5,0,1,0,1.5a2.38,2.38,0,0,1,.74-3.48,13.78,13.78,0,0,1,5.38-.51l1.54.35c3.42.81,2.93.36,3.09,3.55a.34.34,0,0,0,0,.1,1.27,1.27,0,0,0-1.07,1.51c.11,1.06-.47,1.53-1.47,1.7a12.07,12.07,0,0,1-6-.16C917.3,456.9,917.29,456.57,917.29,456.24Zm7.32-1.79a1.95,1.95,0,1,0-2,1.95A1.93,1.93,0,0,0,924.61,454.45Z" transform="translate(-836.17 -449.36)"/><path class="cls-12" d="M924,465.75a11.81,11.81,0,0,1-7.06.05,1.2,1.2,0,0,1-.6-.92,32.91,32.91,0,0,1,.14-3.29,8.36,8.36,0,0,1,.21-1.49c0-.16.29-.26.44-.4.11.17.33.34.33.5,0,1.11-.06,2.23-.17,3.33s.26,1.69,1.4,1.67c1.34,0,2.68,0,4-.09.56,0,.79-.37.76-1-.05-1.25-.07-2.5,0-3.74,0-.25.27-.49.41-.73.12.24.25.48.38.72Z" transform="translate(-836.17 -449.36)"/><path class="cls-13" d="M922.92,464.7c-1.49,0-2.94.05-4.4,0-.83,0-.75-.67-.62-1.36a9.45,9.45,0,0,1,1.07.1c.8.15,1.45.11,1.61-.91,0-.17.35-.38.56-.42.56-.1,1.13-.13,1.78-.2Z" transform="translate(-836.17 -449.36)"/><path class="cls-14" d="M924,458.87a13.57,13.57,0,0,1-7.29,0c-.08-.14-.15-.38-.25-.39-1.62-.31-1.18-1.67-1.36-2.69,0-.16.24-.38.37-.57a2.09,2.09,0,0,1,.08.49c-.15,1.47.71,2,2,2.21a5.49,5.49,0,0,0,1.54.52c1.58,0,3.17-.1,4.85-.16Z" transform="translate(-836.17 -449.36)"/><path class="cls-15" d="M919.67,454.43a1.57,1.57,0,0,1-1.59,1.5,1.5,1.5,0,0,1-1.49-1.47,1.57,1.57,0,0,1,1.52-1.58A1.64,1.64,0,0,1,919.67,454.43Z" transform="translate(-836.17 -449.36)"/><path class="cls-16" d="M924,458.87l-.07-.6c-1.68.06-3.27.17-4.85.16a5.49,5.49,0,0,1-1.54-.52,13.62,13.62,0,0,0,6.5-.21c.87-.24,1.23-.64,1.19-1.54,0-.54-.23-1.3.9-1.4a12.51,12.51,0,0,1-.35,3.18C925.6,458.4,924.61,458.57,924,458.87Z" transform="translate(-836.17 -449.36)"/><path class="cls-17" d="M915.05,454.17c0-.5,0-1,0-1.5,0-1.47.8-2.09,2.35-1.78,0,.55-.07,1.11-.11,1.66l-1.47,1.72.16.29Z" transform="translate(-836.17 -449.36)"/><path class="cls-16" d="M922.8,460.87c-.08.19-.1.47-.23.53a1.62,1.62,0,0,1-.79.12c-1-.07-1.79.2-1.84,1.34-.15.05-.21.1-.27.09-2-.12-1.91.32-1.71-2.06Z" transform="translate(-836.17 -449.36)"/><path class="cls-12" d="M920.77,467c1.14-.17,2-.34,2.92-.42.14,0,.46.37.46.57a5.76,5.76,0,0,1-.23,1.27,11.83,11.83,0,0,1-2.53.06C921.14,468.46,921,467.62,920.77,467Z" transform="translate(-836.17 -449.36)"/><path class="cls-12" d="M919.7,469.11c-.46.63.45,1.9-1.12,1.91-1.25,0-1.37-.09-1.66-1.91Z" transform="translate(-836.17 -449.36)"/><path class="cls-11" d="M921.41,471l-.29-1.92c.83,0,1.59,0,2.35,0,.12,0,.35.4.3.52-.21.48-.41,1.08-.81,1.32S922,471,921.41,471Z" transform="translate(-836.17 -449.36)"/><path class="cls-14" d="M922.8,460.87l-4.84,0c0-.32.09-.64.14-.94h4.63Z" transform="translate(-836.17 -449.36)"/><path class="cls-13" d="M916.22,462.2c-.23,1.12-.42,2.06-.61,3-1.13-.14-1.2-1-1.14-1.8S915.24,462.37,916.22,462.2Z" transform="translate(-836.17 -449.36)"/><path class="cls-14" d="M927.26,462.34a12.65,12.65,0,0,1-1.74,0,.74.74,0,0,1-.49-.51c-.12-.79-.16-1.59-.24-2.39l1.65,1.24C926.38,461.41,926.3,462.14,927.26,462.34Z" transform="translate(-836.17 -449.36)"/><path class="cls-18" d="M926.76,456.81v-4.28C927.85,453.16,927.77,455.66,926.76,456.81Z" transform="translate(-836.17 -449.36)"/><path class="cls-18" d="M914.1,452.6v4.29c-.93-.23-.66-1.12-.75-1.69-.14-.9-.36-1.9.42-2.65Z" transform="translate(-836.17 -449.36)"/><path class="cls-11" d="M919.73,467.59v.83c-.94.05-1.8.14-2.66.12-.14,0-.27-.48-.4-.73.3-.15.61-.41.91-.41C918.3,467.4,919,467.52,919.73,467.59Z" transform="translate(-836.17 -449.36)"/><path class="cls-18" d="M925.81,454.18a.34.34,0,0,1,0-.1c-.16-3.19.33-2.74-3.09-3.55l-1.54-.35c1.45.22,2.9.41,4.34.68a.88.88,0,0,1,.52.67C926,452.42,925.89,453.3,925.81,454.18Z" transform="translate(-836.17 -449.36)"/><path class="cls-17" d="M919.73,467.59c-.72-.07-1.43-.19-2.15-.19-.3,0-.61.26-.91.41-.08-.45-.15-.89-.23-1.35,1,.13,1.94.23,2.83.36C919.69,466.89,920.13,467,919.73,467.59Z" transform="translate(-836.17 -449.36)"/><path class="cls-13" d="M928.28,457.89c-.09.4-.17.81-.26,1.21-1.09-.8-1-2,.15-3.07.44.33.7.66.23,1.2C928.27,457.38,928.32,457.67,928.28,457.89Z" transform="translate(-836.17 -449.36)"/><path class="cls-16" d="M927.26,462.34c-1-.2-.88-.93-.82-1.64l1.56-.81.07.2c-.06.13-.13.26-.2.39-.35.55-.7,1.1.27,1.39Z" transform="translate(-836.17 -449.36)"/><path class="cls-19" d="M915.46,455.21c-.13.19-.4.41-.37.57.18,1-.26,2.38,1.36,2.69.1,0,.17.25.25.39-1.76-.36-1.76-.36-1.86-2.11,0-.64-.09-1.27-.16-2.17Z" transform="translate(-836.17 -449.36)"/><path class="cls-20" d="M926.7,457.56a5.64,5.64,0,0,0,.33,1.19c.29.51.27,1-.25,1.16-.26.09-.66-.2-1-.35-.1-.05-.15-.21-.25-.35a3.42,3.42,0,0,0,.81-.66,3.24,3.24,0,0,0,.2-1Z" transform="translate(-836.17 -449.36)"/><path class="cls-19" d="M914.26,462.32l1.15-2.46c.66,1.59.66,1.59-1.16,2.44Z" transform="translate(-836.17 -449.36)"/><path class="cls-18" d="M924,465.75l.21-5.35c.09,1.59.2,3.18.25,4.77C924.45,465.36,924.15,465.56,924,465.75Z" transform="translate(-836.17 -449.36)"/><path class="cls-17" d="M917.29,456.24c0,.33,0,.66,0,1-1.22-.24-1.31-.41-1.16-2.09Z" transform="translate(-836.17 -449.36)"/><polygon class="cls-19" points="78.08 12.94 78.03 12.98 78.09 12.96 78.08 12.94"/><path class="cls-19" d="M930.14,458.26c.41-1.26.41-1.26.89-1.46.61,1.28.2,2.25-1.18,2.82C929.94,459.17,930,458.72,930.14,458.26Z" transform="translate(-836.17 -449.36)"/><path class="cls-21" d="M927.87,460.48c.07-.13.14-.26.2-.39l1.54,0-.37,1Z" transform="translate(-836.17 -449.36)"/><path class="cls-22" d="M930.9,456l-.23.21Z" transform="translate(-836.17 -449.36)"/><path class="cls-6" d="M924.61,454.45a1.91,1.91,0,0,1-2,1.95,2,2,0,1,1,2-1.95Zm-1.94-1.53a1.49,1.49,0,0,0-1.52,1.54,1.41,1.41,0,0,0,1.48,1.44,1.43,1.43,0,0,0,1.57-1.46A1.48,1.48,0,0,0,922.67,452.92Z" transform="translate(-836.17 -449.36)"/><path class="cls-15" d="M922.67,452.92a1.48,1.48,0,0,1,1.53,1.52,1.43,1.43,0,0,1-1.57,1.46,1.41,1.41,0,0,1-1.48-1.44A1.49,1.49,0,0,1,922.67,452.92Z" transform="translate(-836.17 -449.36)"/></svg>