<svg id="Layer_1" data-name="Layer 1" xmlns="http://www.w3.org/2000/svg" viewBox="0 0 150.45 52.06"><defs><style>.cls-1{fill:#fff;}.cls-2{fill:#224326;}.cls-3{fill:#1d3f22;}.cls-4{fill:#4db695;}.cls-5{fill:#1f3f23;}.cls-6{fill:#4fb796;}.cls-7{fill:#1c3e21;}.cls-8{fill:#b61f1b;}.cls-9{fill:#f8d89c;}.cls-10{fill:#d69f17;}.cls-11{fill:#4ab593;}.cls-12{fill:#48b491;}.cls-13{fill:#c4c8d4;}.cls-14{fill:#8f9abe;}.cls-15{fill:#e13120;}.cls-16{fill:#039870;}.cls-17{fill:#c1c6d2;}.cls-18{fill:#f4f6f4;}.cls-19{fill:#fefefe;}.cls-20{fill:#e64750;}.cls-21{fill:#bfc4cf;}.cls-22{fill:#9b8477;}.cls-23{fill:#dfe8e4;}.cls-24{fill:#db3524;}.cls-25{fill:#e5cdbd;}.cls-26{fill:#eed21b;}</style></defs><path class="cls-1" d="M117.85,27.22l.35-.71-.17-.07-2.82,3.2a9.22,9.22,0,0,0-.51,1.28c-.74,2.89-1.45,5.79-2.17,8.69l-1-1.43-1,.56c.05-1.06.12-2.07.13-3.08s-.11-2-.09-3a1.64,1.64,0,0,0-1.26-1.79,2.39,2.39,0,0,1-1.88-2.92c.11-.69-.27-.91-.84-1.12a37.38,37.38,0,0,0-27.08-.22c-1,.36-1.59.78-1.42,1.89a1.86,1.86,0,0,1-1.45,2.17c-.15.05-.29.18-.44.22a1.66,1.66,0,0,0-1.22,1.93c.11,2.52.26,5,.35,7.56A2.44,2.44,0,0,0,77.52,43a1,1,0,0,1,1,1.24,2.15,2.15,0,0,0,1.89,2.58c.06,0,.11.08.07,0l-3.34,6a4.33,4.33,0,0,0,0,4.16,4.81,4.81,0,0,1,.4,1.53c.19,2.26,1.06,3.51,3.26,4.06,1,.24,1.15.74,1.23,1.59a45,45,0,0,0,2.4,11.23c.11.29.44.69.67.7,2.19,0,4.37,0,6.57,0,.34-2.74.66-5.32,1-7.9h.17c.33,2.59.65,5.19,1,7.91,2.2,0,4.35,0,6.5,0,.27,0,.66-.42.76-.72a50.93,50.93,0,0,0,2.64-14.37c.07-1.73,0-3.48,0-5.24,4,1.08,6.46.49,9-2.08.82.12.65-.59.84-1a9.44,9.44,0,0,0,1.25-1.9,3.61,3.61,0,0,1,2.32-2.25l.11,1.84h6.25V40a50.7,50.7,0,0,1,3,5.4,2,2,0,0,0,2.22,1.36,1.61,1.61,0,0,0,1.69-1.06,29,29,0,0,1,1.36-2.59c.55-1,1.11-2.08,1.67-3.12l.19.07V50.48h6.22V29.83c-1.69,0-3.31.07-4.92,0a1.79,1.79,0,0,0-2,1.22c-1.36,2.88-2.84,5.7-4.34,8.68-.24-.43-.39-.73-.55-1-1.4-2.73-2.79-5.46-4.24-8.17a1.48,1.48,0,0,0-1-.65c-1.31-.07-2.63,0-4,0C118.54,29,118.8,27.87,117.85,27.22Z" transform="translate(-74.93 -24.15)"/><path class="cls-1" d="M169.73,74.94V64.4a38.24,38.24,0,0,1,2.88,5.16c.58,1.35,1.41,1.87,2.77,1.56a1.78,1.78,0,0,0,1.07-.64c.7-1.18,1.31-2.43,2-3.65l1.3-2.42.21.07V74.91h6.3V54.2H183c-1,0-2.23-.31-3,.14s-1,1.69-1.44,2.59l-3.7,7.28C173.21,61,171.63,58,170,54.88c-.15-.28-.49-.64-.74-.65-1.95,0-3.9,0-5.87,0V74.94Z" transform="translate(-74.93 -24.15)"/><path class="cls-1" d="M202.56,53.77c-7.36-.08-12.3,5.69-11,12.89.89,5.06,4.33,8.14,9.81,8.77a10.78,10.78,0,0,0,12-13.09C212.26,57,208.29,53.83,202.56,53.77Z" transform="translate(-74.93 -24.15)"/><path class="cls-1" d="M191.78,38V29.89h-6.67V50.47h6.71v-8h6.31v8h6.75V29.91h-6.82v8Z" transform="translate(-74.93 -24.15)"/><path class="cls-1" d="M164.23,50.49a4.47,4.47,0,0,0-.1-.7q-2.79-9.61-5.57-19.23c-.18-.64-.5-.75-1.08-.74-2.5,0-5,0-7.5,0a1,1,0,0,0-1.11.83c-1.36,5-2.77,10.07-4.16,15.11-.43,1.54-.86,3.1-1.32,4.78,2.24,0,4.32,0,6.41,0,.19,0,.49-.32.55-.54.25-.91.38-1.85.66-2.75a1.08,1.08,0,0,1,.76-.65c1.28-.07,2.56,0,3.85,0,.59,0,.81.2.9.79.16,1.06.42,2.1.65,3.17Z" transform="translate(-74.93 -24.15)"/><path class="cls-1" d="M123.94,59.92c.66-1.58,1.31-3.1,2-4.86-1.71-.42-3.25-.91-4.83-1.17a10.57,10.57,0,0,0-12.64,9.69,10.87,10.87,0,0,0,8,11.61,15.75,15.75,0,0,0,8.74-.9,1.2,1.2,0,0,0,.93-1.39c0-2.5,0-5,0-7.5,0-.29,0-.58,0-1l-5.23.58v4.84a4.11,4.11,0,0,1-4.26-1.31,6.1,6.1,0,0,1-1.28-5.41c.63-3.27,3.26-4.52,5.59-3.89C121.91,59.5,122.87,59.68,123.94,59.92Z" transform="translate(-74.93 -24.15)"/><path class="cls-1" d="M224.64,30.9a16.08,16.08,0,0,0-10.36-1.25,5.71,5.71,0,0,0-4.82,5.06,6.12,6.12,0,0,0,3,6.64,24,24,0,0,0,3.28,1.29,27.29,27.29,0,0,1,2.8,1.13,1.24,1.24,0,0,1,.52,1.06,1.34,1.34,0,0,1-.88.82,6.22,6.22,0,0,1-2.19.1c-1.65-.26-3.28-.63-4.93-1-.53,1.55-1,3-1.54,4.57a4.36,4.36,0,0,0,.45.28,16.76,16.76,0,0,0,10.12,1c3.37-.74,4.77-2.56,5.24-6.41.29-2.32-1.12-4.64-3.77-5.93-1.29-.63-2.71-1-4.06-1.52a4.88,4.88,0,0,1-1.44-.67,1.39,1.39,0,0,1-.32-1.08c0-.22.45-.44.73-.55a1.72,1.72,0,0,1,.9-.08c1.59.28,3.17.57,4.75.9.57.12.92.11,1.13-.57C223.65,33.46,224.15,32.25,224.64,30.9Z" transform="translate(-74.93 -24.15)"/><path class="cls-1" d="M150.92,70.6c2-3.54,3.87-7,6-10.26,1.29-2,.8-4,1-6.07H144.34V58.7h6.6c-.23.42-.4.74-.58,1-2,3.39-4,6.78-6,10.17a2.34,2.34,0,0,0-.39,1c0,1.31,0,2.62,0,4h14.13V70.6Z" transform="translate(-74.93 -24.15)"/><path class="cls-1" d="M165,29.89c0,1.21,0,2.35,0,3.49,0,.71.22.95.93.92,1.13,0,2.26,0,3.48,0V50.46h7.13V34.28c1.24,0,2.36,0,3.47,0,.25,0,.69-.29.69-.46.06-1.3,0-2.6,0-3.91Z" transform="translate(-74.93 -24.15)"/><path class="cls-1" d="M131.75,54.24v20.7h6.85V54.24Z" transform="translate(-74.93 -24.15)"/><path class="cls-2" d="M112.66,53.77c-2.5,2.57-5,3.16-9,2.08,0,1.76.06,3.51,0,5.24a50.93,50.93,0,0,1-2.64,14.37c-.1.3-.49.71-.76.72-2.15,0-4.3,0-6.5,0-.34-2.72-.66-5.32-1-7.91h-.17c-.31,2.58-.63,5.16-1,7.9-2.2,0-4.38,0-6.57,0-.23,0-.56-.41-.67-.7A45,45,0,0,1,82,64.25c-.08-.85-.25-1.35-1.23-1.59-2.2-.55-3.07-1.8-3.26-4.06a4.81,4.81,0,0,0-.4-1.53,4.33,4.33,0,0,1,0-4.16l3.34-6s0,0-.07,0a2.15,2.15,0,0,1-1.89-2.58,1,1,0,0,0-1-1.24,2.44,2.44,0,0,1-2.23-2.68c-.09-2.52-.24-5-.35-7.56a1.66,1.66,0,0,1,1.22-1.93c.15,0,.29-.17.44-.22a1.86,1.86,0,0,0,1.45-2.17c-.17-1.11.43-1.53,1.42-1.89a37.38,37.38,0,0,1,27.08.22c.57.21,1,.43.84,1.12a2.39,2.39,0,0,0,1.88,2.92,1.64,1.64,0,0,1,1.26,1.79c0,1,.09,2,.09,3s-.08,2-.13,3.08l1-.56,1,1.43.69,1.07c.24.42.47.85.72,1.3l-1.26.92-1.36,1.55a2.76,2.76,0,0,1,.89-2.83l-.16-.41h0l-.86-1.45a4.61,4.61,0,0,0-1,7.1l.39.39-.1.94-.27.32c-.15.11-.35.18-.44.33a4.18,4.18,0,0,1-2.81,1.9c-1.89-.34-2.75-2-3.89-3.5a2.88,2.88,0,0,0-.18.62c.2,2,.39,4,.65,5.92a1.27,1.27,0,0,0,.68.75,5.8,5.8,0,0,0,4.79.12l2.06-1.26h.57Zm-5-19.63c0,.86-.05,1.73-.07,2.59-.11,1.74-.23,3.48-.35,5.26,1.21-.37,1.92-1.58,2-3.2l.19-4.45c.1-2.18,0-2.41-1.76-2.91ZM76.2,38.78a8.61,8.61,0,0,1,.29,1.58c0,1.18.76,1.46,1.8,1.57-.11-1.23-.2-2.4-.3-3.56l0-2.62v-4.4c-1.23.36-2,.86-1.87,2.19a3.88,3.88,0,0,1-.11,1Zm6,11.8c.11-.8.23-1.59.32-2.39a2,2,0,0,0-.1-.62c-.22.09-.53.13-.64.3-.64.94-1.23,1.91-1.83,2.87A12.08,12.08,0,0,0,78,55l4-2.13C82,52.25,82.12,51.41,82.19,50.58Zm19.35-2c-.11-.17-.22-.49-.34-.49-1.6,0-1.89.38-1.6,2,0,.23.07.47.1.7.06,3,.11,5.93.2,8.9a1,1,0,0,1-.85,1.21,22.87,22.87,0,0,1-12.68,0c-.51-.14-.8-.35-.79-1,.07-2.76.08-5.53.12-8.29.13-1,.26-2,.38-3-2-.74-2-.74-2.36,1.18,0,.2,0,.4,0,.6,0,1.41,0,2.81-.05,4.22,0,1.57-.1,3.13-.19,4.7,0,.7-.13,1.4-.23,2.09a1.07,1.07,0,0,0,1,1.38c2.12.34,4.23.85,6.36,1a27.2,27.2,0,0,0,10.68-1.1c.5-.1,1-.16,1-.86A69.11,69.11,0,0,0,101.54,48.59Zm-.46,15.73-7.17,1.17c.1.66.2,1.28.29,1.9s.09,1.18.16,2a14.07,14.07,0,0,1,2.75-.55,28.81,28.81,0,0,1,3.57.37c.49.16.66-.1.73-.53.23-1.53.46-3.06.71-4.74Zm-18.7-6.07V54.4c-2.27.44-3.25,1.21-3.54,2.62a11.51,11.51,0,0,0,0,1.31c.18,2.08.82,2.81,2.76,3.14,0-.24,0-.47,0-.69-.15-.87-.21-1.69.75-2.17C82.35,58.57,82.34,58.37,82.38,58.25Zm1.48,8.94a10.48,10.48,0,0,0,.21,1.49c.07.22.36.54.54.53.57,0,1.13-.25,1.7-.29a18.58,18.58,0,0,1,2.69,0,13.87,13.87,0,0,1,2.08.5L91.19,68c.12-.87.23-1.75.36-2.68-1.45-.15-2.79-.24-4.11-.45s-2.6-.53-4.08-.84C83.54,65.22,83.7,66.2,83.86,67.19Zm16.65,3.16a8,8,0,0,1-1.36.28,19.42,19.42,0,0,1-2.75,0,11.13,11.13,0,0,1-1.94-.5l.59,4.74c1.5,0,2.9,0,4.31,0,.18,0,.36-.34.54-.52.33-1.14.68-2.29,1-3.43C101,70.57,101.12,70.2,100.51,70.35ZM105.37,45c.29-2.75.59-5.5.9-8.46l-.93.42c-.88.07-1.16.59-1.18,1.42,0,1.24-.12,2.49-.28,3.73a1.36,1.36,0,0,1-.68.93,22.88,22.88,0,0,1-8.46,1.8c-2.88,0-5.77-.36-8.66-.56-1.28-.41-2.57-.78-3.83-1.25a1.23,1.23,0,0,1-.63-.82c-.19-1.4-.29-2.81-.42-4.22s-1.15-.84-1.79-1.26c.12,2.71.34,5.36.6,8a.91.91,0,0,0,.51.61c1.23.44,2.48.82,3.73,1.22a34.29,34.29,0,0,0,16.87.05ZM87.08,51c-.16,1.59-.33,3.18-.49,4.82.84.11,1.5.21,2.16.26.87.08,2,.46,2.55.08s.81-1.51,1.1-2.35A1,1,0,0,1,93.54,53c1.69-.06,3.37-.25,5.13-.39L98.43,51c-.07-.73-.14-1.46-.2-2.07H87.3a5.78,5.78,0,0,0-.15.75C87.1,50.08,87.1,50.52,87.08,51Zm2.24-25.17A31.38,31.38,0,0,0,80,27.93a1.32,1.32,0,0,0-.58,1c-.07,1.89,0,3.78-.08,5.68,0,.63.19,1,.84,1a2.74,2.74,0,0,1,2.36,3.35,2.18,2.18,0,0,0,0,.5c.21,2.71.21,2.71,2.89,3.39a27.13,27.13,0,0,0,14.25.06c3.59-.95,3-.13,3.17-3.78.1-1.73.34-3.15,2.38-3.44.06,0,.1-.09.15-.13.24-.24.69-.47.69-.7q0-3-.15-6.07a1.19,1.19,0,0,0-.68-.88,61.41,61.41,0,0,0-7.92-1.95A67.62,67.62,0,0,0,89.32,25.79Zm2.9,31.53-5.52-.43c0,.81,0,1.61,0,2.41a.81.81,0,0,0,.54.57,21.16,21.16,0,0,0,10.89,0c.23-.06.55-.36.56-.55,0-1.91,0-3.81,0-5.75l-5.33.47C93,55.08,92.66,56.12,92.22,57.32ZM84.55,70.1l-.16.4c.38,1.32.73,2.64,1.16,3.93a.87.87,0,0,0,.66.43c1.18,0,2.36,0,3.53,0,.25,0,.67-.2.7-.36.21-1.37.35-2.76.55-4.54A7.2,7.2,0,0,1,84.55,70.1Zm20-22.94c.65.69,1.22,1.38,1.88,2a1.08,1.08,0,0,0,1.61-.26c.4-.47,1-1.17.84-1.64a33.32,33.32,0,0,0-1.43-4c-.11.19-.44.52-.43.83.06,1.58-.53,2.62-2.16,2.91C104.82,46.92,104.79,47,104.54,47.16Z" transform="translate(-74.93 -24.15)"/><path class="cls-3" d="M169.73,74.94h-6.31V54.2c2,0,3.92,0,5.87,0,.25,0,.59.37.74.65,1.6,3.07,3.18,6.15,4.81,9.34l3.7-7.28c.45-.9.7-2.14,1.44-2.59s2-.14,3-.14h3.26V74.91h-6.3V64.48l-.21-.07-1.3,2.42c-.64,1.22-1.25,2.47-2,3.65a1.78,1.78,0,0,1-1.07.64c-1.36.31-2.19-.21-2.77-1.56a38.24,38.24,0,0,0-2.88-5.16Z" transform="translate(-74.93 -24.15)"/><path class="cls-4" d="M118.77,29.85c1.32,0,2.64-.06,4,0a1.48,1.48,0,0,1,1,.65c1.45,2.71,2.84,5.44,4.24,8.17.16.29.31.59.55,1,1.5-3,3-5.8,4.34-8.68a1.79,1.79,0,0,1,2-1.22c1.61.1,3.23,0,4.92,0V50.48h-6.22V40L133.4,40c-.56,1-1.12,2.08-1.67,3.12a29,29,0,0,0-1.36,2.59,1.61,1.61,0,0,1-1.69,1.06,2,2,0,0,1-2.22-1.36,50.7,50.7,0,0,0-3-5.4v10.5h-6.25c0-.59-.07-1.21-.11-1.84,3-2.64,3.33-5.5,1.19-8.73l-1.29.41a4.82,4.82,0,0,1,0-1.2c.6-2.48,1.25-5,1.85-7.43a4.78,4.78,0,0,0,0-1.25Z" transform="translate(-74.93 -24.15)"/><path class="cls-3" d="M202.56,53.77c5.73.06,9.7,3.21,10.78,8.57a10.78,10.78,0,0,1-12,13.09c-5.48-.63-8.92-3.71-9.81-8.77C190.26,59.46,195.2,53.69,202.56,53.77Zm4.42,11a21.55,21.55,0,0,0-.84-3.13,3.94,3.94,0,0,0-6.7-1.15,6.85,6.85,0,0,0-.09,7.93,3.89,3.89,0,0,0,6.32-.23A18.35,18.35,0,0,0,207,64.8Z" transform="translate(-74.93 -24.15)"/><path class="cls-4" d="M191.78,38h6.28v-8h6.82V50.48h-6.75v-8h-6.31v8h-6.71V29.89h6.67Z" transform="translate(-74.93 -24.15)"/><path class="cls-4" d="M164.23,50.49h-7.06c-.23-1.07-.49-2.11-.65-3.17-.09-.59-.31-.8-.9-.79-1.29,0-2.57,0-3.85,0a1.08,1.08,0,0,0-.76.65c-.28.9-.41,1.84-.66,2.75-.06.22-.36.54-.55.54-2.09,0-4.17,0-6.41,0,.46-1.68.89-3.24,1.32-4.78,1.39-5,2.8-10.07,4.16-15.11a1,1,0,0,1,1.11-.83c2.5,0,5,0,7.5,0,.58,0,.9.1,1.08.74q2.76,9.63,5.57,19.23A4.47,4.47,0,0,1,164.23,50.49ZM153.81,34.33l-.15,0-1.88,8.43h3.86C155,39.9,154.42,37.12,153.81,34.33Z" transform="translate(-74.93 -24.15)"/><path class="cls-5" d="M123.94,59.92c-1.07-.24-2-.42-3-.67-2.33-.63-5,.62-5.59,3.89a6.1,6.1,0,0,0,1.28,5.41,4.11,4.11,0,0,0,4.26,1.31V65l5.23-.58c0,.38,0,.67,0,1,0,2.5,0,5,0,7.5a1.2,1.2,0,0,1-.93,1.39,15.75,15.75,0,0,1-8.74.9,10.87,10.87,0,0,1-8-11.61,10.57,10.57,0,0,1,12.64-9.69c1.58.26,3.12.75,4.83,1.17C125.25,56.82,124.6,58.34,123.94,59.92Z" transform="translate(-74.93 -24.15)"/><path class="cls-4" d="M224.64,30.9c-.49,1.35-1,2.56-1.37,3.82-.21.68-.56.69-1.13.57-1.58-.33-3.16-.62-4.75-.9a1.72,1.72,0,0,0-.9.08c-.28.11-.7.33-.73.55a1.39,1.39,0,0,0,.32,1.08,4.88,4.88,0,0,0,1.44.67c1.35.51,2.77.89,4.06,1.52,2.65,1.29,4.06,3.61,3.77,5.93-.47,3.85-1.87,5.67-5.24,6.41a16.76,16.76,0,0,1-10.12-1,4.36,4.36,0,0,1-.45-.28c.51-1.53,1-3,1.54-4.57,1.65.33,3.28.7,4.93,1a6.22,6.22,0,0,0,2.19-.1,1.34,1.34,0,0,0,.88-.82,1.24,1.24,0,0,0-.52-1.06,27.29,27.29,0,0,0-2.8-1.13,24,24,0,0,1-3.28-1.29,6.12,6.12,0,0,1-3-6.64,5.71,5.71,0,0,1,4.82-5.06A16.08,16.08,0,0,1,224.64,30.9Z" transform="translate(-74.93 -24.15)"/><path class="cls-3" d="M150.92,70.6h7.13v4.33H143.92c0-1.38,0-2.69,0-4a2.34,2.34,0,0,1,.39-1c2-3.39,4-6.78,6-10.17.18-.31.35-.63.58-1h-6.6V54.27h13.53c-.16,2,.33,4.07-1,6.07C154.79,63.61,153,67.06,150.92,70.6Z" transform="translate(-74.93 -24.15)"/><path class="cls-6" d="M165,29.89h15.72c0,1.31,0,2.61,0,3.91,0,.17-.44.45-.69.46-1.11.05-2.23,0-3.47,0V50.46h-7.13V34.28c-1.22,0-2.35,0-3.48,0-.71,0-1-.21-.93-.92C165.07,32.24,165,31.1,165,29.89Z" transform="translate(-74.93 -24.15)"/><path class="cls-7" d="M131.75,54.24h6.85v20.7h-6.85Z" transform="translate(-74.93 -24.15)"/><path class="cls-2" d="M117,40.31l1.29-.41c2.14,3.23,1.76,6.09-1.19,8.73a3.61,3.61,0,0,0-2.32,2.25,9.44,9.44,0,0,1-1.25,1.9c.1-.38.19-.76.29-1.13l.65-2.45.37-.9a4.62,4.62,0,0,0,3-6.88l-1.84,1c.36,1.08.5,2.08-.4,2.93.44-1.4-1-2.16-1.16-3.34l1.15-.79Z" transform="translate(-74.93 -24.15)"/><path class="cls-8" d="M113.22,40.68l-.69-1.07c.72-2.9,1.43-5.8,2.17-8.69a9.22,9.22,0,0,1,.51-1.28l.52.17c-.07.43-.11.86-.21,1.29Q114.38,35.89,113.22,40.68Z" transform="translate(-74.93 -24.15)"/><path class="cls-9" d="M118.77,29.85l0,.58-.66.12-.23,0-.66-.71a1.93,1.93,0,0,1,.6-2.59C118.8,27.87,118.54,29,118.77,29.85Z" transform="translate(-74.93 -24.15)"/><path class="cls-10" d="M117.85,27.22a1.93,1.93,0,0,0-.6,2.59h-1.52l-.52-.17,2.82-3.2.17.07Z" transform="translate(-74.93 -24.15)"/><path class="cls-8" d="M113.79,51.65c-.1.37-.19.75-.29,1.13s0,1.11-.84,1l-1-.36.84-1.85Z" transform="translate(-74.93 -24.15)"/><path class="cls-11" d="M80.19,35.57c-.65,0-.86-.33-.84-1,.05-1.9,0-3.79.08-5.68a1.32,1.32,0,0,1,.58-1,31.38,31.38,0,0,1,9.31-2.14c1.87.15,3.75.24,5.61.45a34.21,34.21,0,0,1,9.4,2.24,1.18,1.18,0,0,1,.86,1.18c.06,1.95.16,3.91.25,5.86,0,0-.09.12-.15.13-2,.29-2.28,1.71-2.38,3.44-.21,3.65.42,2.83-3.17,3.78a27.13,27.13,0,0,1-14.25-.06c-.13-.92-.27-1.85-.41-2.77l.74.29a4.64,4.64,0,0,0,5.6-6.61c-1.15-2.12-3.41-2.86-6.1-2,.21-1.54.42-3.09.65-4.81-1.77.55-3.43,1.08-5.1,1.58-.55.17-.69.48-.68,1C80.21,31.55,80.19,33.56,80.19,35.57Zm22.53.35a4.63,4.63,0,0,0-4.67-4.6,4.64,4.64,0,1,0,.07,9.27A4.63,4.63,0,0,0,102.72,35.92Z" transform="translate(-74.93 -24.15)"/><path class="cls-12" d="M101.28,62.7A27.2,27.2,0,0,1,90.6,63.8c-2.13-.2-4.24-.71-6.36-1a1.07,1.07,0,0,1-1-1.38c.1-.69.19-1.39.23-2.09.09-1.57.15-3.13.19-4.7,0-1.41,0-2.81.05-4.22,1.69,0,1.9.15,2,1.24,0,2.76,0,5.53-.12,8.29,0,.61.28.82.79,1a22.87,22.87,0,0,0,12.68,0,1,1,0,0,0,.85-1.21c-.09-3-.14-5.94-.2-8.9l1.76-.43c0,.41,0,.81,0,1.22Z" transform="translate(-74.93 -24.15)"/><path class="cls-13" d="M92.22,57.32c.44-1.2.82-2.24,1.19-3.27l5.33-.47c0,1.94,0,3.84,0,5.75,0,.19-.33.49-.56.55a21.16,21.16,0,0,1-10.89,0,.81.81,0,0,1-.54-.57c-.07-.8,0-1.6,0-2.41Z" transform="translate(-74.93 -24.15)"/><path class="cls-14" d="M101.12,46.6a34.29,34.29,0,0,1-16.87-.05c.15-.73-.16-1.08-.9-1.22-1.68-.33-3.14-.91-2.85-3.08,0,0,0-.07,0-.1-.1-1.42-.19-2.85-.3-4.38l1,.21c.13,1.41.23,2.82.42,4.22a1.23,1.23,0,0,0,.63.82c1.26.47,2.55.84,3.83,1.25.22.26.41.71.67.77a25.36,25.36,0,0,0,8.19.55c2.08-.24,4.14-.64,6.31-1Z" transform="translate(-74.93 -24.15)"/><path class="cls-15" d="M115.73,29.81h1.52l.66.71,0,.57h0l-.21.82h0l-.2.81h0l-.2.81h0l-.21.81h0l-.21.82h0l-.21.82h0l-.2.82h0l-.21.82h0l-.21.82h0v.8l-.16.21,0,.59-.38,1.27-1.15.79c.2,1.18,1.6,1.94,1.16,3.34-.24,1-.48,1.94-.71,2.92l-.37.9-1.78-.28-1.14-.4a3.93,3.93,0,0,1,0-1c.36-1.56.75-3.1,1.14-4.65l1.26-.92c-.25-.45-.48-.88-.72-1.3q1.16-4.8,2.3-9.58C115.62,30.67,115.66,30.24,115.73,29.81Z" transform="translate(-74.93 -24.15)"/><path class="cls-16" d="M85.08,40c.14.92.28,1.85.41,2.77-2.68-.68-2.68-.68-2.89-3.39a2.18,2.18,0,0,1,0-.5,2.74,2.74,0,0,0-2.36-3.35c0-2,0-4,0-6,0-.56.13-.87.68-1,1.67-.5,3.33-1,5.1-1.58-.23,1.72-.44,3.27-.65,4.81A4.71,4.71,0,0,0,85.08,40Z" transform="translate(-74.93 -24.15)"/><path class="cls-13" d="M98.43,51l.24,1.6c-1.76.14-3.44.33-5.13.39a1,1,0,0,0-1.14.81c-.29.84-.48,2-1.1,2.35s-1.68,0-2.55-.08c-.66,0-1.32-.15-2.16-.26.16-1.64.33-3.23.49-4.82A37.24,37.24,0,0,0,98.43,51Z" transform="translate(-74.93 -24.15)"/><path class="cls-17" d="M101.12,46.6l.13-2c-2.17.34-4.23.74-6.31,1A25.36,25.36,0,0,1,86.75,45c-.26-.06-.45-.51-.67-.77,2.89.2,5.78.56,8.66.56A22.88,22.88,0,0,0,103.2,43a1.36,1.36,0,0,0,.68-.93c.16-1.24.24-2.49.28-3.73,0-.83.3-1.35,1.18-1.42l0,8Z" transform="translate(-74.93 -24.15)"/><path class="cls-14" d="M98.43,51a37.24,37.24,0,0,1-11.35,0c0-.44,0-.88.07-1.31a5.78,5.78,0,0,1,.15-.75H98.23C98.29,49.51,98.36,50.24,98.43,51Z" transform="translate(-74.93 -24.15)"/><path class="cls-12" d="M84.55,70.1A7.2,7.2,0,0,0,91,70c-.2,1.78-.34,3.17-.55,4.54,0,.16-.45.35-.7.36-1.17,0-2.35,0-3.53,0a.87.87,0,0,1-.66-.43c-.43-1.29-.78-2.61-1.16-3.93Z" transform="translate(-74.93 -24.15)"/><path class="cls-12" d="M99.9,74.34c-.18.18-.36.51-.54.52-1.41,0-2.81,0-4.31,0l-.59-4.74a11.13,11.13,0,0,0,1.94.5,19.42,19.42,0,0,0,2.75,0,8,8,0,0,0,1.36-.28C100.31,71.68,100.1,73,99.9,74.34Z" transform="translate(-74.93 -24.15)"/><path class="cls-14" d="M109,54.66a5.8,5.8,0,0,1-4.79-.12,1.27,1.27,0,0,1-.68-.75c-.26-2-.45-3.95-.65-5.92a2.88,2.88,0,0,1,.18-.62c1.14,1.51,2,3.16,3.89,3.5C106.34,53.06,107,54.39,109,54.66Z" transform="translate(-74.93 -24.15)"/><path class="cls-18" d="M105.44,35.52c-.09-2-.19-3.91-.25-5.86a1.18,1.18,0,0,0-.86-1.18,34.21,34.21,0,0,0-9.4-2.24c-1.86-.21-3.74-.3-5.61-.45a67.62,67.62,0,0,1,8.06.13,61.41,61.41,0,0,1,7.92,1.95,1.19,1.19,0,0,1,.68.88q.17,3,.15,6.07C106.13,35.05,105.68,35.28,105.44,35.52Z" transform="translate(-74.93 -24.15)"/><path class="cls-11" d="M91.19,68l-.11,1.35a13.87,13.87,0,0,0-2.08-.5,18.58,18.58,0,0,0-2.69,0c-.57,0-1.13.26-1.7.29-.18,0-.47-.31-.54-.53a10.48,10.48,0,0,1-.21-1.49A7.18,7.18,0,0,1,90.41,67C90.75,67.18,90.93,67.7,91.19,68Z" transform="translate(-74.93 -24.15)"/><path class="cls-11" d="M100.68,69.21a28.81,28.81,0,0,0-3.57-.37,14.07,14.07,0,0,0-2.75.55l-.16-2a8.27,8.27,0,0,1,6.65-.62Z" transform="translate(-74.93 -24.15)"/><path class="cls-13" d="M82.38,58.25c0,.12,0,.32-.11.36-1,.48-.9,1.3-.75,2.17,0,.22,0,.45,0,.69-1.94-.33-2.58-1.06-2.76-3.14a11.51,11.51,0,0,1,0-1.31c.87-.65,1.61-1.57,2.82-1.57Z" transform="translate(-74.93 -24.15)"/><path class="cls-16" d="M91.19,68c-.26-.34-.44-.86-.78-1a7.18,7.18,0,0,0-6.55.15l-.5-3.12c1.48.31,2.77.64,4.08.84s2.66.3,4.11.45C91.42,66.29,91.31,67.17,91.19,68Z" transform="translate(-74.93 -24.15)"/><path class="cls-13" d="M109,54.66c-2-.27-2.7-1.6-2.05-3.91a4.18,4.18,0,0,0,2.81-1.9c.09-.15.29-.22.44-.33l-.33,2.23-.49,2.08,1.68.57Z" transform="translate(-74.93 -24.15)"/><path class="cls-18" d="M104.54,47.16c.25-.2.28-.24.31-.24,1.63-.29,2.22-1.33,2.16-2.91,0-.31.32-.64.43-.83a33.32,33.32,0,0,1,1.43,4c.11.47-.44,1.17-.84,1.64a1.08,1.08,0,0,1-1.61.26C105.76,48.54,105.19,47.85,104.54,47.16Z" transform="translate(-74.93 -24.15)"/><path class="cls-16" d="M100.85,66.77a8.27,8.27,0,0,0-6.65.62c-.09-.62-.19-1.24-.29-1.9l7.17-1.17C101,65.13,100.93,66,100.85,66.77Z" transform="translate(-74.93 -24.15)"/><path class="cls-17" d="M81.2,38l-1-.21c.11,1.53.2,3,.3,4.38,0,0,0,.07,0,.1-.29,2.17,1.17,2.75,2.85,3.08.74.14,1.05.49.9,1.22-1.25-.4-2.5-.78-3.73-1.22a.91.91,0,0,1-.51-.61c-.26-2.64-.48-5.29-.6-8C80.05,37.14,81.21,36.69,81.2,38Z" transform="translate(-74.93 -24.15)"/><path class="cls-18" d="M101.28,62.7l.21-11.14c0-.41,0-.81,0-1.22l.08-1.75a69.11,69.11,0,0,1,.75,13.25C102.27,62.54,101.78,62.6,101.28,62.7Z" transform="translate(-74.93 -24.15)"/><path class="cls-17" d="M82.19,50.58c-.07.83-.15,1.67-.2,2.27L78,55a12.08,12.08,0,0,1,2-4.24Z" transform="translate(-74.93 -24.15)"/><path class="cls-13" d="M112.21,41.62a2.76,2.76,0,0,0-.89,2.83c-.23.93-.47,1.87-.71,2.81l-.39-.39c-.12-.38-.25-.76-.36-1.15A5,5,0,0,1,111,40.65l1.09.57h0Z" transform="translate(-74.93 -24.15)"/><path class="cls-19" d="M77.94,35.75l0,2.62c0,.57-.32.73-.83.61-.32-.08-.64-.14-1-.2L76,34.54l1.7-.37Z" transform="translate(-74.93 -24.15)"/><path class="cls-19" d="M109.38,34.34l-.19,4.45-1.64.25V36.73c0-.86,0-1.73.07-2.59Z" transform="translate(-74.93 -24.15)"/><path class="cls-20" d="M111.1,53.4l-1.68-.57.49-2.08,1.77.42.83.39-.84,1.85Z" transform="translate(-74.93 -24.15)"/><path class="cls-21" d="M77.94,35.75l-.28-1.58-1.7.37a3.88,3.88,0,0,0,.11-1c-.18-1.33.64-1.83,1.87-2.19Z" transform="translate(-74.93 -24.15)"/><path class="cls-16" d="M85.7,51.6c-.12-1.09-.33-1.22-2-1.24,0-.2,0-.4,0-.6.34-1.92.34-1.92,2.36-1.18C86,49.57,85.83,50.58,85.7,51.6Z" transform="translate(-74.93 -24.15)"/><path class="cls-21" d="M76.2,38.78c.32.06.64.12,1,.2.51.12.82,0,.83-.61.1,1.16.19,2.33.3,3.56-1-.11-1.77-.39-1.8-1.57A8.61,8.61,0,0,0,76.2,38.78Z" transform="translate(-74.93 -24.15)"/><path class="cls-22" d="M111.68,51.17l-1.77-.42.33-2.23.27-.32,1,.32,1.14.4C111.69,49.39,112,50.41,111.68,51.17Z" transform="translate(-74.93 -24.15)"/><path class="cls-18" d="M112.06,41.22,111,40.65a5,5,0,0,0-1.11,5.07c.11.39.24.77.36,1.15a4.61,4.61,0,0,1,1-7.1Z" transform="translate(-74.93 -24.15)"/><path class="cls-21" d="M107.55,36.73V39l1.64-.25c-.07,1.62-.78,2.83-2,3.2C107.32,40.21,107.44,38.47,107.55,36.73Z" transform="translate(-74.93 -24.15)"/><path class="cls-8" d="M111.52,48.52l-1-.32c0-.31.07-.63.1-.94.24-.94.48-1.88.71-2.81l1.36-1.55c-.39,1.55-.78,3.09-1.14,4.65A3.93,3.93,0,0,0,111.52,48.52Z" transform="translate(-74.93 -24.15)"/><path class="cls-14" d="M82.19,50.58l-2.25.16c.6-1,1.19-1.93,1.83-2.87.11-.17.42-.21.64-.3a2,2,0,0,1,.1.62C82.42,49,82.3,49.78,82.19,50.58Z" transform="translate(-74.93 -24.15)"/><path class="cls-18" d="M100.85,66.77c.08-.82.15-1.64.23-2.45l1-.38c-.25,1.68-.48,3.21-.71,4.74-.07.43-.24.69-.73.53C100.74,68.4,100.79,67.58,100.85,66.77Z" transform="translate(-74.93 -24.15)"/><path class="cls-16" d="M101.54,48.59l-.08,1.75-1.76.43c0-.23-.06-.47-.1-.7-.29-1.59,0-2,1.6-2C101.32,48.1,101.43,48.42,101.54,48.59Z" transform="translate(-74.93 -24.15)"/><path class="cls-13" d="M109.38,34.34l-1.76-.2V31.43C109.34,31.93,109.48,32.16,109.38,34.34Z" transform="translate(-74.93 -24.15)"/><path class="cls-23" d="M105.37,45l0-8,.93-.42C106,39.49,105.66,42.24,105.37,45Z" transform="translate(-74.93 -24.15)"/><path class="cls-18" d="M82.38,58.25l-.72-2.8c-1.21,0-2,.92-2.82,1.57.29-1.41,1.27-2.18,3.54-2.62Z" transform="translate(-74.93 -24.15)"/><path class="cls-23" d="M99.9,74.34c.2-1.33.41-2.66.61-4,.61-.15.5.22.4.56C100.58,72.05,100.23,73.2,99.9,74.34Z" transform="translate(-74.93 -24.15)"/><path class="cls-18" d="M112.21,41.62l-.16-.41Z" transform="translate(-74.93 -24.15)"/><path class="cls-24" d="M115.51,41.25c.13-.42.25-.84.38-1.27,0-.19,0-.39,0-.59l.16-.21c0-.27,0-.53,0-.8h0l.21-.82h0l.21-.82h0l.2-.82h0l.21-.82h0l.21-.82h0l.21-.81h0l.2-.81h0l.2-.81h0l.21-.82h0l.21-.54.66-.12a4.78,4.78,0,0,1,0,1.25c-.6,2.48-1.25,5-1.85,7.43a4.82,4.82,0,0,0,0,1.2Z" transform="translate(-74.93 -24.15)"/><path class="cls-19" d="M207,64.8a18.35,18.35,0,0,1-1.31,3.42,3.89,3.89,0,0,1-6.32.23,6.85,6.85,0,0,1,.09-7.93,3.94,3.94,0,0,1,6.7,1.15A21.55,21.55,0,0,1,207,64.8Z" transform="translate(-74.93 -24.15)"/><path class="cls-19" d="M153.81,34.33c.61,2.79,1.22,5.57,1.83,8.41h-3.86l1.88-8.43Z" transform="translate(-74.93 -24.15)"/><path class="cls-17" d="M114.81,48.3c.23-1,.47-1.95.71-2.92.9-.85.76-1.85.4-2.93l1.84-1A4.62,4.62,0,0,1,114.81,48.3Z" transform="translate(-74.93 -24.15)"/><path class="cls-25" d="M111.68,51.17c.31-.76,0-1.78,1-2.25l1.78.28-.65,2.45-1.28-.09Z" transform="translate(-74.93 -24.15)"/><path class="cls-20" d="M118.14,30.55l-.21.54,0-.57Z" transform="translate(-74.93 -24.15)"/><path class="cls-2" d="M85.08,40a4.71,4.71,0,0,1,.24-8.31c2.69-.87,5-.13,6.1,2a4.64,4.64,0,0,1-5.6,6.61Zm5.83-4.28-.11-.51a.07.07,0,0,0,0-.1,3.44,3.44,0,0,0-3.52-2.81,3.61,3.61,0,0,0,0,7.22A3.53,3.53,0,0,0,90.91,35.76Z" transform="translate(-74.93 -24.15)"/><path class="cls-2" d="M102.72,35.92a4.63,4.63,0,0,1-4.6,4.67,4.64,4.64,0,1,1-.07-9.27A4.63,4.63,0,0,1,102.72,35.92Zm-1.18-.61h0a3.49,3.49,0,0,0-6.76-.59h0l-.19.62a3.48,3.48,0,0,0,3.28,4.21,3.56,3.56,0,0,0,3.78-3.6Z" transform="translate(-74.93 -24.15)"/><path class="cls-20" d="M117.12,34.33l-.21.82Z" transform="translate(-74.93 -24.15)"/><path class="cls-20" d="M117.32,33.52l-.21.81Z" transform="translate(-74.93 -24.15)"/><path class="cls-20" d="M116.1,38.38c0,.27,0,.53,0,.8C116.1,38.91,116.1,38.65,116.1,38.38Z" transform="translate(-74.93 -24.15)"/><path class="cls-20" d="M116.31,37.57l-.21.82Z" transform="translate(-74.93 -24.15)"/><path class="cls-20" d="M116.71,36l-.2.82Z" transform="translate(-74.93 -24.15)"/><path class="cls-20" d="M117.52,32.71l-.2.81Z" transform="translate(-74.93 -24.15)"/><path class="cls-20" d="M116.51,36.76l-.21.82Z" transform="translate(-74.93 -24.15)"/><path class="cls-20" d="M117.93,31.08l-.21.82Z" transform="translate(-74.93 -24.15)"/><path class="cls-20" d="M116.92,35.14l-.21.82Z" transform="translate(-74.93 -24.15)"/><path class="cls-20" d="M117.72,31.9l-.2.81Z" transform="translate(-74.93 -24.15)"/><path class="cls-20" d="M115.93,39.39c0,.2,0,.4,0,.59C115.9,39.79,115.91,39.59,115.93,39.39Z" transform="translate(-74.93 -24.15)"/><path class="cls-26" d="M90.78,35.15a.07.07,0,0,1,0,.1c0,.17.08.34.11.51a3.53,3.53,0,0,1-3.66,3.8,3.48,3.48,0,0,1-3.4-4c1.67-2.47,4.36-2.75,6.53-.69A2.7,2.7,0,0,0,90.78,35.15Z" transform="translate(-74.93 -24.15)"/><path class="cls-10" d="M90.78,35.15a2.7,2.7,0,0,1-.4-.29c-2.17-2.06-4.86-1.78-6.53.69a3.49,3.49,0,0,1,3.41-3.21A3.44,3.44,0,0,1,90.78,35.15Z" transform="translate(-74.93 -24.15)"/><path class="cls-10" d="M90.91,35.76c0-.17-.07-.34-.11-.51C90.84,35.42,90.88,35.59,90.91,35.76Z" transform="translate(-74.93 -24.15)"/><path class="cls-26" d="M101.67,36a3.56,3.56,0,0,1-3.78,3.6,3.48,3.48,0,0,1-3.28-4.21l.19-.62h0a14.23,14.23,0,0,1,1.95-1,4.13,4.13,0,0,1,4.81,1.57h0C101.58,35.53,101.63,35.75,101.67,36Z" transform="translate(-74.93 -24.15)"/><path class="cls-10" d="M101.55,35.32a4.13,4.13,0,0,0-4.81-1.57,14.23,14.23,0,0,0-1.95,1,3.49,3.49,0,0,1,6.76.59Z" transform="translate(-74.93 -24.15)"/><path class="cls-10" d="M101.67,36c0-.21-.09-.43-.13-.64C101.58,35.53,101.63,35.75,101.67,36Z" transform="translate(-74.93 -24.15)"/><path class="cls-10" d="M94.8,34.73l-.19.62Z" transform="translate(-74.93 -24.15)"/></svg>